<svg width="19" height="19" viewBox="0 0 19 19" fill="none" xmlns="http://www.w3.org/2000/svg">
<path d="M15.5167 11.3315C14.2549 11.3327 13.0195 11.6924 11.9543 12.3687C10.889 13.045 10.0379 14.01 9.5 15.1513C8.96209 14.01 8.11096 13.045 7.04574 12.3687C5.98053 11.6924 4.74509 11.3327 3.48333 11.3315H0V11.9649C0 15.6317 2.98316 18.6149 6.65 18.6149H12.35C16.0168 18.6149 19 15.6317 19 11.9649V11.3315H15.5167ZM6.65 17.3482C3.89575 17.3482 1.61801 15.2693 1.30372 12.5982H3.48333C6.23758 12.5982 8.51532 14.6771 8.82962 17.3482H6.65ZM12.35 17.3482H10.1704C10.4847 14.6771 12.7624 12.5982 15.5167 12.5982H17.6963C17.382 15.2693 15.1042 17.3482 12.35 17.3482Z" fill="black"/>
<path d="M6.06511 9.69941C6.18489 10.4116 6.52467 11.0685 7.03676 11.5778L7.22228 11.7632H7.4846C8.20683 11.7653 8.91155 11.5411 9.49987 11.1221C10.0882 11.5411 10.7929 11.7654 11.5151 11.7634H11.7775L11.963 11.5779C12.4751 11.0686 12.8149 10.4118 12.9346 9.69956C13.6469 9.57978 14.3037 9.24 14.813 8.72791L14.9985 8.54238V8.28007C15.0005 7.55779 14.7763 6.853 14.3574 6.26464C14.7763 5.67634 15.0006 4.97161 14.9986 4.24937V3.98705L14.8131 3.80153C14.3039 3.28944 13.647 2.94966 12.9348 2.82988C12.815 2.11765 12.4752 1.46081 11.9631 0.951528L11.7776 0.76604H11.5153C10.793 0.764 10.0882 0.988187 9.49987 1.40713C8.91157 0.988157 8.20684 0.763916 7.4846 0.765882H7.22228L7.03676 0.95137C6.52467 1.46066 6.18489 2.1175 6.06511 2.82972C5.35288 2.9495 4.69604 3.28928 4.18676 3.80137L4.00127 3.9869V4.24922C3.99923 4.97149 4.22342 5.67628 4.64236 6.26464C4.22339 6.85294 3.99915 7.55767 4.00111 8.27991V8.54223L4.1866 8.72775C4.69593 9.23987 5.35283 9.57965 6.06511 9.69941V9.69941ZM5.91722 5.81683C5.56597 5.46769 5.34282 5.01023 5.28389 4.5185C5.67325 4.21234 6.15455 4.04655 6.64987 4.04797H7.2832V3.41464C7.28177 2.91938 7.44752 2.43813 7.75361 2.04878C8.24535 2.10771 8.70281 2.33086 9.05195 2.68211L9.49987 3.12964L9.94768 2.68183C10.2968 2.33058 10.7543 2.10743 11.246 2.0485C11.5522 2.43791 11.718 2.91927 11.7165 3.41464V4.04797H12.3499C12.8451 4.04655 13.3264 4.21229 13.7157 4.51838C13.6568 5.01012 13.4336 5.46757 13.0824 5.81672L12.6349 6.26464L13.0827 6.71249C13.434 7.06163 13.6571 7.51908 13.716 8.01082C13.3266 8.31701 12.8452 8.48279 12.3499 8.48131H11.7165V9.11464C11.718 9.6099 11.5522 10.0912 11.2461 10.4805C10.7544 10.4216 10.2969 10.1984 9.9478 9.84717L9.49987 9.39964L9.05202 9.84733C8.70289 10.1986 8.24543 10.4217 7.75369 10.4807C7.44754 10.0913 7.28176 9.60997 7.2832 9.11464V8.48131H6.64987C6.15461 8.48274 5.67336 8.31699 5.28401 8.0109C5.34294 7.51916 5.56609 7.0617 5.91734 6.71257L6.36487 6.26464L5.91722 5.81683Z" fill="black"/>
</svg>
