<svg xmlns="http://www.w3.org/2000/svg" width="17" height="17" viewBox="0 0 17 17">
    <g fill="none" fill-rule="evenodd">
        <g fill="#000" fill-rule="nonzero" stroke="#000" stroke-width=".5">
            <g>
                <g>
                    <path d="M14.909 14.466l-4.564-4.563c.947-1.053 1.53-2.44 1.53-3.966C11.875 2.664 9.21 0 5.937 0 2.664 0 0 2.664 0 5.937c0 3.274 2.664 5.938 5.937 5.938 1.525 0 2.913-.583 3.965-1.53l4.564 4.563c.061.061.141.092.221.092.08 0 .16-.03.222-.091.121-.123.121-.32 0-.443zM5.937 11.25C3.008 11.25.625 8.867.625 5.938c0-2.93 2.383-5.313 5.312-5.313 2.93 0 5.313 2.383 5.313 5.312 0 2.93-2.383 5.313-5.313 5.313z" transform="translate(-23 -77) translate(20 73) translate(4 5)"/>
                </g>
            </g>
        </g>
    </g>
</svg>
