<svg xmlns="http://www.w3.org/2000/svg" width="13" height="19" viewBox="0 0 13 19">
    <g fill="none" fill-rule="evenodd">
        <g fill="#000" fill-rule="nonzero">
            <g>
                <g>
                    <path d="M12.439 8.296c0-.287-.233-.52-.52-.52-.287 0-.52.233-.52.52 0 2.841-2.311 5.153-5.152 5.153s-5.153-2.312-5.153-5.153c0-.287-.233-.52-.52-.52-.287 0-.52.233-.52.52 0 3.24 2.5 5.906 5.673 6.17v1.84H3.41c-.287 0-.52.233-.52.52 0 .288.233.52.52.52h5.673c.287 0 .52-.232.52-.52 0-.287-.233-.52-.52-.52H6.767v-1.84c3.172-.264 5.672-2.93 5.672-6.17z" transform="translate(-322 -76) translate(20 73) translate(302 3)"/>
                    <path d="M6.247 11.652c1.85 0 3.356-1.505 3.356-3.356v-4.94C9.603 1.506 8.097 0 6.247 0 4.396 0 2.89 1.506 2.89 3.356v4.94c0 1.85 1.506 3.356 3.357 3.356zM3.93 3.356c0-1.277 1.04-2.316 2.317-2.316 1.277 0 2.316 1.039 2.316 2.316v4.94c0 1.277-1.04 2.316-2.316 2.316-1.278 0-2.317-1.039-2.317-2.316v-4.94z" transform="translate(-322 -76) translate(20 73) translate(302 3)"/>
                </g>
            </g>
        </g>
    </g>
</svg>
