<svg xmlns="http://www.w3.org/2000/svg" width="21" height="20" viewBox="0 0 21 20">
    <g fill="none" fill-rule="evenodd">
        <g fill="#111">
            <g>
                <g>
                    <g>
                        <path d="M9.555.449c.293.293.293.768 0 1.06L2.765 8.3 20.25 8.3c.414 0 .75.336.75.75s-.336.75-.75.75H2.814l6.741 6.74c.293.293.293.768 0 1.061-.293.293-.767.293-1.06 0l-8.01-8.01c-.156-.155-.229-.361-.22-.564-.01-.204.063-.412.22-.568L8.494.45c.293-.293.767-.293 1.06 0z" transform="translate(-20 -15) translate(20 11) translate(0 4) translate(0 1)"/>
                    </g>
                </g>
            </g>
        </g>
    </g>
</svg>
