<svg xmlns="http://www.w3.org/2000/svg" width="6" height="9" viewBox="0 0 6 9">
    <g fill="none" fill-rule="evenodd">
        <g fill="#111" fill-rule="nonzero">
            <g>
                <g>
                    <path d="M69.92 11.515l-.4-.43c-.054-.056-.116-.085-.185-.085-.07 0-.131.029-.184.086L66 14.462l-3.15-3.376c-.054-.057-.115-.086-.185-.086-.07 0-.13.029-.184.086l-.4.43c-.054.057-.081.123-.081.197 0 .075.027.14.08.198l3.736 4.003c.053.057.115.086.184.086.07 0 .13-.029.184-.086l3.736-4.003c.053-.058.08-.123.08-.198 0-.074-.027-.14-.08-.198z" transform="translate(-319 -504) translate(20 492) translate(236 3) rotate(-90 66 13.5)"/>
                </g>
            </g>
        </g>
    </g>
</svg>
