<svg xmlns="http://www.w3.org/2000/svg" width="18" height="18" viewBox="0 0 18 18">
    <g fill="none" fill-rule="evenodd">
        <g fill="#000">
            <g>
                <path d="M15.502 9.491h-.794l-.276.274C15.407 10.902 16 12.376 16 13.991c0 3.59-2.91 6.5-6.5 6.5s-6.5-2.91-6.5-6.5 2.91-6.5 6.5-6.5c1.615 0 3.088.592 4.225 1.566l.276-.274v-.792L18.999 3l1.491 1.491-4.988 5zm-6.002 0c-2.486 0-4.5 2.014-4.5 4.5 0 2.485 2.014 4.5 4.5 4.5 2.485 0 4.5-2.015 4.5-4.5 0-2.486-2.015-4.5-4.5-4.5z" transform="translate(-289 -42) translate(286 39) matrix(1 0 0 -1 0 23.491)"/>
            </g>
        </g>
    </g>
</svg>
