<svg xmlns="http://www.w3.org/2000/svg" width="19" height="20" viewBox="0 0 19 20">
    <g fill="none" fill-rule="evenodd">
        <g fill="#000" fill-rule="nonzero">
            <g>
                <path d="M14.739 12.453c-1.167 0-2.21.532-2.903 1.366l-4.507-2.558c.14-.395.218-.819.218-1.26 0-.442-.078-.866-.218-1.26l4.506-2.56c.693.834 1.737 1.366 2.903 1.366 2.08 0 3.773-1.693 3.773-3.774C18.511 1.693 16.82 0 14.74 0c-2.081 0-3.774 1.693-3.774 3.773 0 .442.077.866.217 1.26l-4.506 2.56c-.692-.834-1.736-1.366-2.902-1.366C1.693 6.227 0 7.92 0 10s1.693 3.773 3.774 3.773c1.166 0 2.21-.532 2.902-1.365l4.506 2.558c-.14.395-.217.819-.217 1.26 0 2.081 1.693 3.774 3.773 3.774s3.773-1.693 3.773-3.773-1.692-3.774-3.772-3.774zm0-11.133c1.352 0 2.452 1.1 2.452 2.453 0 1.353-1.1 2.454-2.452 2.454-1.353 0-2.453-1.1-2.453-2.454 0-1.352 1.1-2.453 2.453-2.453zM3.774 12.453c-1.353 0-2.454-1.1-2.454-2.453 0-1.352 1.101-2.453 2.454-2.453 1.352 0 2.452 1.1 2.452 2.453 0 1.353-1.1 2.453-2.452 2.453zm10.965 6.227c-1.353 0-2.453-1.1-2.453-2.453 0-1.353 1.1-2.454 2.453-2.454 1.352 0 2.452 1.101 2.452 2.454 0 1.352-1.1 2.453-2.452 2.453z" transform="translate(-321 -14) translate(321 14)"/>
            </g>
        </g>
    </g>
</svg>
