<svg xmlns="http://www.w3.org/2000/svg" width="19" height="19" viewBox="0 0 19 19">
    <g fill="none" fill-rule="evenodd">
        <g>
            <g>
                <g>
                    <g transform="translate(-260 -318) translate(30 190) translate(40 115) translate(190 13)">
                        <circle cx="9.409" cy="9.409" r="9.409" fill="#888"/>
                        <path fill="#FFF" d="M7.31 6.57l2.005 2.005L11.32 6.57c.316-.316.829-.316 1.145 0 .316.316.316.829 0 1.145L10.46 9.72l2.005 2.005c.316.316.316.829 0 1.145-.316.316-.829.316-1.145 0l-2.005-2.005L7.31 12.87c-.316.316-.829.316-1.145 0-.316-.316-.316-.829 0-1.145L8.17 9.72 6.165 7.715c-.316-.316-.316-.829 0-1.145.316-.316.829-.316 1.145 0z"/>
                    </g>
                </g>
            </g>
        </g>
    </g>
</svg>
